<svg xmlns="http://www.w3.org/2000/svg" xmlns:xlink="http://www.w3.org/1999/xlink" width="150" zoomAndPan="magnify" viewBox="0 0 112.5 37.5" height="50" preserveAspectRatio="xMidYMid meet" version="1.0"><defs><g/><clipPath id="6808029545"><path d="M 84.890625 5.292969 L 91.117188 5.292969 L 91.117188 16.246094 L 84.890625 16.246094 Z M 84.890625 5.292969 " clip-rule="nonzero"/></clipPath><clipPath id="11b1c26e78"><path d="M 88.589844 11.019531 C 88.585938 9.253906 87.449219 7.984375 85.964844 7.808594 C 85.550781 7.761719 85.269531 7.484375 85.257812 7.121094 C 85.25 6.726562 85.492188 6.441406 85.925781 6.382812 C 86.339844 6.328125 86.621094 6.121094 86.789062 5.742188 C 86.824219 5.664062 86.867188 5.589844 86.914062 5.519531 C 87.070312 5.300781 87.273438 5.242188 87.519531 5.339844 C 87.707031 5.417969 87.894531 5.488281 88.074219 5.578125 C 88.347656 5.707031 88.40625 5.878906 88.34375 6.175781 C 88.289062 6.433594 88.265625 6.699219 88.226562 6.960938 L 88.226562 6.996094 C 88.5 7.511719 88.851562 7.929688 89.398438 8.105469 C 89.558594 8.15625 89.757812 8.085938 89.9375 8.058594 C 90.039062 8.042969 90.132812 8 90.234375 7.976562 C 90.484375 7.917969 90.648438 7.988281 90.761719 8.222656 C 90.863281 8.429688 90.953125 8.644531 91.035156 8.859375 C 91.117188 9.074219 91.058594 9.253906 90.867188 9.386719 C 90.753906 9.46875 90.628906 9.53125 90.507812 9.601562 C 90.191406 9.78125 90.003906 10.039062 90.011719 10.417969 C 90.015625 10.679688 90.007812 10.941406 90.023438 11.203125 C 90.042969 11.472656 90.199219 11.667969 90.421875 11.808594 L 90.816406 12.035156 C 91.074219 12.195312 91.140625 12.371094 91.039062 12.65625 L 90.816406 13.195312 C 90.683594 13.480469 90.492188 13.5625 90.1875 13.484375 C 89.992188 13.433594 89.800781 13.382812 89.601562 13.359375 C 89.378906 13.332031 89.179688 13.421875 89.019531 13.578125 C 88.839844 13.75 88.660156 13.925781 88.488281 14.109375 C 88.257812 14.359375 88.175781 14.652344 88.292969 14.984375 L 88.394531 15.335938 C 88.460938 15.613281 88.386719 15.789062 88.136719 15.910156 C 87.933594 16.011719 87.726562 16.101562 87.515625 16.175781 C 87.277344 16.257812 87.101562 16.191406 86.964844 15.976562 L 86.722656 15.570312 C 86.542969 15.292969 86.292969 15.152344 85.957031 15.148438 C 85.769531 15.148438 85.570312 15.160156 85.398438 15.097656 C 85.023438 14.964844 84.851562 14.625 84.929688 14.253906 C 84.992188 13.941406 85.296875 13.699219 85.660156 13.710938 C 86.308594 13.730469 86.875 13.527344 87.382812 13.148438 C 88.183594 12.546875 88.574219 11.734375 88.589844 11.019531 " clip-rule="nonzero"/></clipPath><clipPath id="b37f5b5a12"><path d="M 80.859375 4.886719 L 85.988281 4.886719 L 85.988281 17 L 80.859375 17 Z M 80.859375 4.886719 " clip-rule="nonzero"/></clipPath><clipPath id="de326dd1aa"><path d="M 84.742188 16.957031 C 84.429688 16.957031 84.117188 16.984375 83.808594 16.953125 C 83.339844 16.902344 82.972656 16.554688 82.921875 16.089844 C 82.828125 15.203125 82.523438 14.382812 82.183594 13.574219 C 81.929688 12.960938 81.648438 12.359375 81.351562 11.765625 C 80.949219 10.957031 80.808594 10.109375 80.882812 9.210938 C 81.046875 7.191406 82.582031 5.457031 84.53125 5.011719 C 84.84375 4.941406 85.171875 4.917969 85.492188 4.890625 C 85.679688 4.875 85.84375 4.949219 85.929688 5.132812 C 86.003906 5.289062 86 5.457031 85.878906 5.574219 C 85.792969 5.65625 85.652344 5.722656 85.53125 5.726562 C 84.703125 5.769531 83.949219 6.011719 83.292969 6.519531 C 82.519531 7.113281 82.003906 7.878906 81.792969 8.835938 C 81.597656 9.714844 81.6875 10.566406 82.109375 11.375 C 82.71875 12.542969 83.230469 13.753906 83.589844 15.023438 C 83.664062 15.292969 83.703125 15.574219 83.746094 15.847656 C 83.777344 16.066406 83.835938 16.136719 84.0625 16.136719 L 85.511719 16.140625 C 85.789062 16.140625 85.976562 16.316406 85.976562 16.5625 C 85.976562 16.796875 85.78125 16.976562 85.511719 16.980469 L 84.742188 16.980469 Z M 84.742188 16.957031 " clip-rule="nonzero"/></clipPath><clipPath id="f3282a04fb"><path d="M 83.460938 8.515625 L 87.894531 8.515625 L 87.894531 12.984375 L 83.460938 12.984375 Z M 83.460938 8.515625 " clip-rule="nonzero"/></clipPath><clipPath id="4a947112b3"><path d="M 86.875 10.742188 C 86.875 10.085938 86.332031 9.542969 85.679688 9.546875 C 85.023438 9.550781 84.480469 10.09375 84.484375 10.75 C 84.484375 11.375 84.960938 11.960938 85.695312 11.949219 C 86.488281 11.9375 86.90625 11.292969 86.875 10.742188 M 87.335938 9.6875 C 87.34375 9.683594 87.386719 9.671875 87.425781 9.667969 C 87.515625 9.664062 87.664062 9.628906 87.6875 9.667969 C 87.769531 9.792969 87.824219 9.945312 87.855469 10.097656 C 87.863281 10.136719 87.765625 10.210938 87.703125 10.253906 C 87.457031 10.417969 87.347656 10.734375 87.476562 11 C 87.523438 11.09375 87.628906 11.164062 87.722656 11.230469 C 87.890625 11.34375 87.910156 11.40625 87.816406 11.632812 C 87.753906 11.785156 87.6875 11.914062 87.480469 11.828125 C 87.101562 11.667969 86.59375 12.183594 86.78125 12.558594 C 86.851562 12.6875 86.792969 12.785156 86.652344 12.847656 C 86.328125 12.992188 86.328125 12.996094 86.136719 12.699219 C 85.949219 12.40625 85.421875 12.425781 85.234375 12.730469 C 85.074219 12.988281 85.0625 12.992188 84.785156 12.878906 C 84.570312 12.789062 84.539062 12.746094 84.613281 12.515625 C 84.691406 12.265625 84.558594 12.113281 84.398438 11.960938 C 84.25 11.820312 84.097656 11.761719 83.902344 11.851562 C 83.761719 11.914062 83.660156 11.878906 83.589844 11.730469 C 83.460938 11.464844 83.464844 11.375 83.625 11.269531 C 83.910156 11.078125 83.976562 10.90625 83.910156 10.578125 C 83.878906 10.410156 83.769531 10.332031 83.632812 10.261719 C 83.472656 10.179688 83.453125 10.101562 83.539062 9.882812 C 83.625 9.65625 83.679688 9.621094 83.867188 9.667969 C 84.179688 9.746094 84.539062 9.546875 84.617188 9.238281 C 84.636719 9.15625 84.609375 9.058594 84.582031 8.972656 C 84.527344 8.8125 84.558594 8.699219 84.730469 8.648438 L 84.882812 8.582031 C 85.003906 8.523438 85.085938 8.558594 85.15625 8.675781 C 85.347656 8.988281 85.527344 9.074219 85.871094 8.976562 C 85.976562 8.945312 86.074219 8.832031 86.144531 8.734375 C 86.285156 8.527344 86.332031 8.507812 86.578125 8.617188 C 86.789062 8.714844 86.820312 8.78125 86.75 9 C 86.65625 9.296875 86.980469 9.695312 87.335938 9.683594 " clip-rule="nonzero"/></clipPath><clipPath id="735c774418"><path d="M 79.6875 3.277344 L 81.703125 3.277344 L 81.703125 5.328125 L 79.6875 5.328125 Z M 79.6875 3.277344 " clip-rule="nonzero"/></clipPath><clipPath id="2b1afb0b02"><path d="M 81.699219 4.929688 C 81.695312 5.210938 81.390625 5.390625 81.191406 5.273438 L 81.046875 5.164062 C 80.636719 4.761719 80.230469 4.359375 79.828125 3.949219 C 79.621094 3.738281 79.648438 3.484375 79.882812 3.351562 C 80.023438 3.269531 80.160156 3.289062 80.269531 3.398438 L 81.601562 4.734375 C 81.660156 4.792969 81.679688 4.890625 81.699219 4.929688 " clip-rule="nonzero"/></clipPath><clipPath id="c020146517"><path d="M 89.542969 3.277344 L 91.558594 3.277344 L 91.558594 5.363281 L 89.542969 5.363281 Z M 89.542969 3.277344 " clip-rule="nonzero"/></clipPath><clipPath id="4ee4510d78"><path d="M 89.863281 5.363281 C 89.753906 5.261719 89.625 5.191406 89.582031 5.082031 C 89.542969 4.992188 89.566406 4.828125 89.628906 4.753906 C 89.832031 4.511719 90.066406 4.292969 90.292969 4.070312 L 90.917969 3.449219 C 91.117188 3.261719 91.289062 3.257812 91.445312 3.417969 C 91.59375 3.570312 91.585938 3.773438 91.40625 3.953125 L 90.210938 5.144531 C 90.125 5.226562 90.003906 5.277344 89.863281 5.363281 " clip-rule="nonzero"/></clipPath><clipPath id="171a9d0c1f"><path d="M 91.300781 8.84375 L 93.867188 8.84375 L 93.867188 9.613281 L 91.300781 9.613281 Z M 91.300781 8.84375 " clip-rule="nonzero"/></clipPath><clipPath id="ed5dd411e8"><path d="M 92.035156 8.882812 C 91.984375 8.882812 91.929688 8.882812 91.875 8.882812 L 91.636719 8.886719 C 91.445312 8.910156 91.304688 9.066406 91.3125 9.246094 C 91.324219 9.445312 91.460938 9.578125 91.667969 9.578125 L 93.519531 9.578125 C 93.710938 9.574219 93.84375 9.453125 93.863281 9.269531 C 93.882812 9.109375 93.753906 8.9375 93.578125 8.898438 C 93.503906 8.882812 93.429688 8.882812 93.359375 8.882812 C 92.917969 8.882812 92.476562 8.882812 92.035156 8.882812 Z M 92.035156 8.882812 " clip-rule="nonzero"/></clipPath><clipPath id="8ea1901bb7"><path d="M 85.257812 1.335938 L 85.988281 1.335938 L 85.988281 3.863281 L 85.257812 3.863281 Z M 85.257812 1.335938 " clip-rule="nonzero"/></clipPath><clipPath id="2acf5fde60"><path d="M 85.640625 1.335938 C 85.554688 1.335938 85.464844 1.359375 85.402344 1.402344 C 85.324219 1.453125 85.273438 1.597656 85.269531 1.699219 C 85.257812 2.285156 85.261719 2.871094 85.261719 3.457031 L 85.273438 3.546875 C 85.320312 3.746094 85.441406 3.855469 85.613281 3.855469 C 85.628906 3.855469 85.644531 3.855469 85.65625 3.855469 C 85.835938 3.839844 85.953125 3.695312 85.957031 3.488281 L 85.957031 2.628906 L 85.960938 2.628906 C 85.960938 2.292969 85.972656 1.957031 85.949219 1.621094 C 85.945312 1.523438 85.84375 1.386719 85.753906 1.351562 C 85.722656 1.339844 85.683594 1.335938 85.644531 1.335938 Z M 85.640625 1.335938 " clip-rule="nonzero"/></clipPath></defs><g fill="#f1f100" fill-opacity="1"><g transform="translate(2.833946, 30.338142)"><g><path d="M 1.703125 0 L 0.6875 0 C 0.601562 0 0.539062 -0.015625 0.5 -0.046875 C 0.46875 -0.0859375 0.453125 -0.148438 0.453125 -0.234375 L 0.453125 -4.5 C 0.453125 -4.582031 0.46875 -4.640625 0.5 -4.671875 C 0.539062 -4.710938 0.601562 -4.734375 0.6875 -4.734375 L 1.703125 -4.734375 C 1.785156 -4.734375 1.847656 -4.710938 1.890625 -4.671875 C 1.929688 -4.640625 1.953125 -4.582031 1.953125 -4.5 L 1.953125 -3.078125 L 3.046875 -3.078125 L 3.046875 -4.5 C 3.046875 -4.582031 3.0625 -4.640625 3.09375 -4.671875 C 3.132812 -4.710938 3.195312 -4.734375 3.28125 -4.734375 L 4.296875 -4.734375 C 4.378906 -4.734375 4.4375 -4.710938 4.46875 -4.671875 C 4.507812 -4.640625 4.53125 -4.582031 4.53125 -4.5 L 4.53125 -0.234375 C 4.53125 -0.148438 4.507812 -0.0859375 4.46875 -0.046875 C 4.4375 -0.015625 4.378906 0 4.296875 0 L 3.28125 0 C 3.195312 0 3.132812 -0.015625 3.09375 -0.046875 C 3.0625 -0.0859375 3.046875 -0.148438 3.046875 -0.234375 L 3.046875 -1.703125 L 1.953125 -1.703125 L 1.953125 -0.234375 C 1.953125 -0.148438 1.929688 -0.0859375 1.890625 -0.046875 C 1.847656 -0.015625 1.785156 0 1.703125 0 Z M 1.703125 0 "/></g></g></g><g fill="#f1f100" fill-opacity="1"><g transform="translate(9.902018, 30.338142)"><g><path d="M 2.171875 -3.359375 L 1.859375 -2.359375 L 2.890625 -2.359375 L 2.578125 -3.359375 C 2.566406 -3.398438 2.550781 -3.425781 2.53125 -3.4375 C 2.507812 -3.457031 2.484375 -3.46875 2.453125 -3.46875 L 2.296875 -3.46875 C 2.265625 -3.46875 2.238281 -3.457031 2.21875 -3.4375 C 2.207031 -3.425781 2.191406 -3.398438 2.171875 -3.359375 Z M 1.796875 -0.234375 C 1.796875 -0.148438 1.773438 -0.0859375 1.734375 -0.046875 C 1.703125 -0.015625 1.644531 0 1.5625 0 L 0.59375 0 C 0.507812 0 0.445312 -0.015625 0.40625 -0.046875 C 0.375 -0.0859375 0.359375 -0.148438 0.359375 -0.234375 L 0.359375 -1.96875 C 0.359375 -2.101562 0.378906 -2.253906 0.421875 -2.421875 C 0.460938 -2.597656 0.523438 -2.800781 0.609375 -3.03125 L 1.1875 -4.515625 C 1.207031 -4.585938 1.242188 -4.640625 1.296875 -4.671875 C 1.359375 -4.710938 1.429688 -4.734375 1.515625 -4.734375 L 3.296875 -4.734375 C 3.378906 -4.734375 3.445312 -4.710938 3.5 -4.671875 C 3.550781 -4.640625 3.59375 -4.585938 3.625 -4.515625 L 4.1875 -3.03125 C 4.28125 -2.800781 4.347656 -2.597656 4.390625 -2.421875 C 4.429688 -2.253906 4.453125 -2.101562 4.453125 -1.96875 L 4.453125 -0.234375 C 4.453125 -0.148438 4.429688 -0.0859375 4.390625 -0.046875 C 4.347656 -0.015625 4.285156 0 4.203125 0 L 3.21875 0 C 3.125 0 3.054688 -0.015625 3.015625 -0.046875 C 2.972656 -0.0859375 2.953125 -0.148438 2.953125 -0.234375 L 2.953125 -1.15625 L 1.796875 -1.15625 Z M 1.796875 -0.234375 "/></g></g></g><g fill="#f1f100" fill-opacity="1"><g transform="translate(16.779236, 30.338142)"><g><path d="M 1.703125 0 L 0.6875 0 C 0.601562 0 0.539062 -0.015625 0.5 -0.046875 C 0.46875 -0.0859375 0.453125 -0.148438 0.453125 -0.234375 L 0.453125 -4.5 C 0.453125 -4.582031 0.46875 -4.640625 0.5 -4.671875 C 0.539062 -4.710938 0.601562 -4.734375 0.6875 -4.734375 L 2.703125 -4.734375 C 3.296875 -4.734375 3.703125 -4.613281 3.921875 -4.375 C 4.140625 -4.144531 4.25 -3.835938 4.25 -3.453125 L 4.25 -2.609375 C 4.25 -2.234375 4.140625 -1.925781 3.921875 -1.6875 C 3.703125 -1.445312 3.296875 -1.328125 2.703125 -1.328125 L 1.953125 -1.328125 L 1.953125 -0.234375 C 1.953125 -0.148438 1.929688 -0.0859375 1.890625 -0.046875 C 1.847656 -0.015625 1.785156 0 1.703125 0 Z M 1.9375 -3.5 L 1.9375 -2.515625 L 2.53125 -2.515625 C 2.65625 -2.515625 2.734375 -2.546875 2.765625 -2.609375 C 2.804688 -2.671875 2.828125 -2.742188 2.828125 -2.828125 L 2.828125 -3.1875 C 2.828125 -3.269531 2.804688 -3.34375 2.765625 -3.40625 C 2.734375 -3.46875 2.65625 -3.5 2.53125 -3.5 Z M 1.9375 -3.5 "/></g></g></g><g fill="#f1f100" fill-opacity="1"><g transform="translate(23.340563, 30.338142)"><g><path d="M 1.703125 0 L 0.6875 0 C 0.601562 0 0.539062 -0.015625 0.5 -0.046875 C 0.46875 -0.0859375 0.453125 -0.148438 0.453125 -0.234375 L 0.453125 -4.5 C 0.453125 -4.582031 0.46875 -4.640625 0.5 -4.671875 C 0.539062 -4.710938 0.601562 -4.734375 0.6875 -4.734375 L 2.703125 -4.734375 C 3.296875 -4.734375 3.703125 -4.613281 3.921875 -4.375 C 4.140625 -4.144531 4.25 -3.835938 4.25 -3.453125 L 4.25 -2.609375 C 4.25 -2.234375 4.140625 -1.925781 3.921875 -1.6875 C 3.703125 -1.445312 3.296875 -1.328125 2.703125 -1.328125 L 1.953125 -1.328125 L 1.953125 -0.234375 C 1.953125 -0.148438 1.929688 -0.0859375 1.890625 -0.046875 C 1.847656 -0.015625 1.785156 0 1.703125 0 Z M 1.9375 -3.5 L 1.9375 -2.515625 L 2.53125 -2.515625 C 2.65625 -2.515625 2.734375 -2.546875 2.765625 -2.609375 C 2.804688 -2.671875 2.828125 -2.742188 2.828125 -2.828125 L 2.828125 -3.1875 C 2.828125 -3.269531 2.804688 -3.34375 2.765625 -3.40625 C 2.734375 -3.46875 2.65625 -3.5 2.53125 -3.5 Z M 1.9375 -3.5 "/></g></g></g><g fill="#f1f100" fill-opacity="1"><g transform="translate(29.901888, 30.338142)"><g><path d="M 2.859375 0 L 1.796875 0 C 1.710938 0 1.648438 -0.015625 1.609375 -0.046875 C 1.566406 -0.0859375 1.546875 -0.148438 1.546875 -0.234375 L 1.546875 -1.078125 L 0.546875 -2.421875 C 0.441406 -2.554688 0.375 -2.675781 0.34375 -2.78125 C 0.3125 -2.882812 0.296875 -3.035156 0.296875 -3.234375 L 0.296875 -4.5 C 0.296875 -4.582031 0.3125 -4.640625 0.34375 -4.671875 C 0.382812 -4.710938 0.445312 -4.734375 0.53125 -4.734375 L 1.546875 -4.734375 C 1.628906 -4.734375 1.6875 -4.710938 1.71875 -4.671875 C 1.757812 -4.640625 1.78125 -4.582031 1.78125 -4.5 L 1.78125 -3.421875 C 1.78125 -3.378906 1.78125 -3.332031 1.78125 -3.28125 C 1.789062 -3.226562 1.8125 -3.179688 1.84375 -3.140625 L 2.140625 -2.671875 C 2.160156 -2.628906 2.179688 -2.597656 2.203125 -2.578125 C 2.234375 -2.566406 2.265625 -2.5625 2.296875 -2.5625 L 2.375 -2.5625 C 2.40625 -2.5625 2.429688 -2.566406 2.453125 -2.578125 C 2.484375 -2.597656 2.507812 -2.628906 2.53125 -2.671875 L 2.828125 -3.140625 C 2.859375 -3.179688 2.875 -3.226562 2.875 -3.28125 C 2.882812 -3.332031 2.890625 -3.378906 2.890625 -3.421875 L 2.890625 -4.5 C 2.890625 -4.582031 2.90625 -4.640625 2.9375 -4.671875 C 2.976562 -4.710938 3.039062 -4.734375 3.125 -4.734375 L 4.109375 -4.734375 C 4.191406 -4.734375 4.25 -4.710938 4.28125 -4.671875 C 4.320312 -4.640625 4.34375 -4.582031 4.34375 -4.5 L 4.34375 -3.234375 C 4.34375 -3.035156 4.320312 -2.882812 4.28125 -2.78125 C 4.25 -2.675781 4.1875 -2.554688 4.09375 -2.421875 L 3.09375 -1.078125 L 3.09375 -0.234375 C 3.09375 -0.148438 3.070312 -0.0859375 3.03125 -0.046875 C 3 -0.015625 2.941406 0 2.859375 0 Z M 2.859375 0 "/></g></g></g><g fill="#f1f100" fill-opacity="1"><g transform="translate(36.614578, 30.338142)"><g/></g></g><g fill="#f1f100" fill-opacity="1"><g transform="translate(40.168348, 30.338142)"><g><path d="M 2.65625 0 L 0.578125 0 C 0.492188 0 0.429688 -0.015625 0.390625 -0.046875 C 0.347656 -0.0859375 0.328125 -0.148438 0.328125 -0.234375 L 0.328125 -1 C 0.328125 -1.082031 0.347656 -1.144531 0.390625 -1.1875 C 0.429688 -1.226562 0.492188 -1.25 0.578125 -1.25 L 2.34375 -1.25 C 2.394531 -1.25 2.4375 -1.265625 2.46875 -1.296875 C 2.5 -1.335938 2.515625 -1.382812 2.515625 -1.4375 C 2.515625 -1.507812 2.5 -1.5625 2.46875 -1.59375 C 2.4375 -1.632812 2.394531 -1.65625 2.34375 -1.65625 L 1.359375 -1.796875 C 1.046875 -1.835938 0.796875 -1.9375 0.609375 -2.09375 C 0.421875 -2.25 0.328125 -2.515625 0.328125 -2.890625 L 0.328125 -3.578125 C 0.328125 -3.953125 0.445312 -4.238281 0.6875 -4.4375 C 0.9375 -4.632812 1.273438 -4.734375 1.703125 -4.734375 L 3.546875 -4.734375 C 3.617188 -4.734375 3.675781 -4.710938 3.71875 -4.671875 C 3.757812 -4.640625 3.78125 -4.582031 3.78125 -4.5 L 3.78125 -3.71875 C 3.78125 -3.632812 3.757812 -3.570312 3.71875 -3.53125 C 3.675781 -3.5 3.617188 -3.484375 3.546875 -3.484375 L 2 -3.484375 C 1.945312 -3.484375 1.90625 -3.460938 1.875 -3.421875 C 1.84375 -3.390625 1.828125 -3.34375 1.828125 -3.28125 C 1.828125 -3.226562 1.84375 -3.179688 1.875 -3.140625 C 1.90625 -3.097656 1.945312 -3.078125 2 -3.078125 L 2.984375 -2.9375 C 3.296875 -2.894531 3.546875 -2.796875 3.734375 -2.640625 C 3.921875 -2.484375 4.015625 -2.21875 4.015625 -1.84375 L 4.015625 -1.15625 C 4.015625 -0.78125 3.890625 -0.492188 3.640625 -0.296875 C 3.398438 -0.0976562 3.070312 0 2.65625 0 Z M 2.65625 0 "/></g></g></g><g fill="#f1f100" fill-opacity="1"><g transform="translate(46.519079, 30.338142)"><g><path d="M 1.671875 0 L 0.6875 0 C 0.601562 0 0.539062 -0.015625 0.5 -0.046875 C 0.46875 -0.0859375 0.453125 -0.148438 0.453125 -0.234375 L 0.453125 -4.5 C 0.453125 -4.582031 0.46875 -4.640625 0.5 -4.671875 C 0.539062 -4.710938 0.601562 -4.734375 0.6875 -4.734375 L 1.75 -4.734375 C 1.820312 -4.734375 1.878906 -4.71875 1.921875 -4.6875 C 1.972656 -4.65625 2.015625 -4.601562 2.046875 -4.53125 L 2.640625 -3.46875 C 2.660156 -3.425781 2.675781 -3.394531 2.6875 -3.375 C 2.707031 -3.363281 2.734375 -3.359375 2.765625 -3.359375 L 2.828125 -3.359375 C 2.847656 -3.359375 2.863281 -3.363281 2.875 -3.375 C 2.894531 -3.394531 2.914062 -3.425781 2.9375 -3.46875 L 3.53125 -4.53125 C 3.5625 -4.601562 3.597656 -4.65625 3.640625 -4.6875 C 3.691406 -4.71875 3.753906 -4.734375 3.828125 -4.734375 L 4.890625 -4.734375 C 4.972656 -4.734375 5.03125 -4.710938 5.0625 -4.671875 C 5.101562 -4.640625 5.125 -4.582031 5.125 -4.5 L 5.125 -0.234375 C 5.125 -0.148438 5.101562 -0.0859375 5.0625 -0.046875 C 5.03125 -0.015625 4.972656 0 4.890625 0 L 3.875 0 C 3.789062 0 3.726562 -0.015625 3.6875 -0.046875 C 3.65625 -0.0859375 3.640625 -0.148438 3.640625 -0.234375 L 3.640625 -2.546875 L 3.25 -1.828125 C 3.21875 -1.753906 3.171875 -1.703125 3.109375 -1.671875 C 3.054688 -1.640625 2.988281 -1.625 2.90625 -1.625 L 2.640625 -1.625 C 2.554688 -1.625 2.488281 -1.640625 2.4375 -1.671875 C 2.382812 -1.703125 2.335938 -1.753906 2.296875 -1.828125 L 1.90625 -2.546875 L 1.90625 -0.234375 C 1.90625 -0.148438 1.882812 -0.0859375 1.84375 -0.046875 C 1.8125 -0.015625 1.753906 0 1.671875 0 Z M 1.671875 0 "/></g></g></g><g fill="#f1f100" fill-opacity="1"><g transform="translate(54.179445, 30.338142)"><g><path d="M 2.171875 -3.359375 L 1.859375 -2.359375 L 2.890625 -2.359375 L 2.578125 -3.359375 C 2.566406 -3.398438 2.550781 -3.425781 2.53125 -3.4375 C 2.507812 -3.457031 2.484375 -3.46875 2.453125 -3.46875 L 2.296875 -3.46875 C 2.265625 -3.46875 2.238281 -3.457031 2.21875 -3.4375 C 2.207031 -3.425781 2.191406 -3.398438 2.171875 -3.359375 Z M 1.796875 -0.234375 C 1.796875 -0.148438 1.773438 -0.0859375 1.734375 -0.046875 C 1.703125 -0.015625 1.644531 0 1.5625 0 L 0.59375 0 C 0.507812 0 0.445312 -0.015625 0.40625 -0.046875 C 0.375 -0.0859375 0.359375 -0.148438 0.359375 -0.234375 L 0.359375 -1.96875 C 0.359375 -2.101562 0.378906 -2.253906 0.421875 -2.421875 C 0.460938 -2.597656 0.523438 -2.800781 0.609375 -3.03125 L 1.1875 -4.515625 C 1.207031 -4.585938 1.242188 -4.640625 1.296875 -4.671875 C 1.359375 -4.710938 1.429688 -4.734375 1.515625 -4.734375 L 3.296875 -4.734375 C 3.378906 -4.734375 3.445312 -4.710938 3.5 -4.671875 C 3.550781 -4.640625 3.59375 -4.585938 3.625 -4.515625 L 4.1875 -3.03125 C 4.28125 -2.800781 4.347656 -2.597656 4.390625 -2.421875 C 4.429688 -2.253906 4.453125 -2.101562 4.453125 -1.96875 L 4.453125 -0.234375 C 4.453125 -0.148438 4.429688 -0.0859375 4.390625 -0.046875 C 4.347656 -0.015625 4.285156 0 4.203125 0 L 3.21875 0 C 3.125 0 3.054688 -0.015625 3.015625 -0.046875 C 2.972656 -0.0859375 2.953125 -0.148438 2.953125 -0.234375 L 2.953125 -1.15625 L 1.796875 -1.15625 Z M 1.796875 -0.234375 "/></g></g></g><g fill="#f1f100" fill-opacity="1"><g transform="translate(61.056662, 30.338142)"><g><path d="M 1.9375 -3.546875 L 1.9375 -2.703125 L 2.4375 -2.703125 C 2.550781 -2.703125 2.625 -2.734375 2.65625 -2.796875 C 2.695312 -2.859375 2.71875 -2.929688 2.71875 -3.015625 L 2.71875 -3.25 C 2.71875 -3.332031 2.695312 -3.398438 2.65625 -3.453125 C 2.625 -3.515625 2.550781 -3.546875 2.4375 -3.546875 Z M 1.703125 0 L 0.6875 0 C 0.601562 0 0.539062 -0.015625 0.5 -0.046875 C 0.46875 -0.0859375 0.453125 -0.148438 0.453125 -0.234375 L 0.453125 -4.5 C 0.453125 -4.582031 0.46875 -4.640625 0.5 -4.671875 C 0.539062 -4.710938 0.601562 -4.734375 0.6875 -4.734375 L 2.875 -4.734375 C 3.375 -4.734375 3.710938 -4.628906 3.890625 -4.421875 C 4.078125 -4.222656 4.171875 -3.960938 4.171875 -3.640625 L 4.171875 -3.328125 C 4.171875 -3.148438 4.144531 -2.992188 4.09375 -2.859375 C 4.039062 -2.734375 3.945312 -2.640625 3.8125 -2.578125 C 4.039062 -2.554688 4.226562 -2.460938 4.375 -2.296875 C 4.53125 -2.128906 4.609375 -1.90625 4.609375 -1.625 L 4.609375 -0.234375 C 4.609375 -0.148438 4.585938 -0.0859375 4.546875 -0.046875 C 4.515625 -0.015625 4.457031 0 4.375 0 L 3.34375 0 C 3.257812 0 3.195312 -0.015625 3.15625 -0.046875 C 3.125 -0.0859375 3.109375 -0.148438 3.109375 -0.234375 L 3.109375 -1.25 C 3.109375 -1.34375 3.085938 -1.410156 3.046875 -1.453125 C 3.015625 -1.503906 2.953125 -1.53125 2.859375 -1.53125 L 1.9375 -1.53125 L 1.9375 -0.234375 C 1.9375 -0.148438 1.914062 -0.0859375 1.875 -0.046875 C 1.84375 -0.015625 1.785156 0 1.703125 0 Z M 1.703125 0 "/></g></g></g><g fill="#f1f100" fill-opacity="1"><g transform="translate(68.019436, 30.338142)"><g><path d="M 2.6875 0 L 1.625 0 C 1.539062 0 1.476562 -0.015625 1.4375 -0.046875 C 1.40625 -0.0859375 1.390625 -0.148438 1.390625 -0.234375 L 1.390625 -3.46875 L 0.421875 -3.46875 C 0.335938 -3.46875 0.273438 -3.484375 0.234375 -3.515625 C 0.203125 -3.554688 0.1875 -3.617188 0.1875 -3.703125 L 0.1875 -4.5 C 0.1875 -4.582031 0.203125 -4.640625 0.234375 -4.671875 C 0.273438 -4.710938 0.335938 -4.734375 0.421875 -4.734375 L 3.890625 -4.734375 C 3.972656 -4.734375 4.03125 -4.710938 4.0625 -4.671875 C 4.101562 -4.640625 4.125 -4.582031 4.125 -4.5 L 4.125 -3.703125 C 4.125 -3.617188 4.101562 -3.554688 4.0625 -3.515625 C 4.03125 -3.484375 3.972656 -3.46875 3.890625 -3.46875 L 2.921875 -3.46875 L 2.921875 -0.234375 C 2.921875 -0.148438 2.898438 -0.0859375 2.859375 -0.046875 C 2.828125 -0.015625 2.769531 0 2.6875 0 Z M 2.6875 0 "/></g></g></g><g fill="#f1f100" fill-opacity="1"><g transform="translate(74.409661, 30.338142)"><g/></g></g><g fill="#f1f100" fill-opacity="1"><g transform="translate(77.963429, 30.338142)"><g><path d="M 4.03125 0 L 0.6875 0 C 0.601562 0 0.539062 -0.015625 0.5 -0.046875 C 0.46875 -0.0859375 0.453125 -0.148438 0.453125 -0.234375 L 0.453125 -4.5 C 0.453125 -4.582031 0.46875 -4.640625 0.5 -4.671875 C 0.539062 -4.710938 0.601562 -4.734375 0.6875 -4.734375 L 1.703125 -4.734375 C 1.785156 -4.734375 1.847656 -4.710938 1.890625 -4.671875 C 1.929688 -4.640625 1.953125 -4.582031 1.953125 -4.5 L 1.953125 -1.25 L 2.84375 -1.25 L 2.84375 -2.3125 C 2.84375 -2.394531 2.859375 -2.453125 2.890625 -2.484375 C 2.929688 -2.523438 2.992188 -2.546875 3.078125 -2.546875 L 4.03125 -2.546875 C 4.113281 -2.546875 4.175781 -2.523438 4.21875 -2.484375 C 4.257812 -2.453125 4.28125 -2.394531 4.28125 -2.3125 L 4.28125 -0.234375 C 4.28125 -0.148438 4.257812 -0.0859375 4.21875 -0.046875 C 4.175781 -0.015625 4.113281 0 4.03125 0 Z M 4.03125 0 "/></g></g></g><g fill="#f1f100" fill-opacity="1"><g transform="translate(84.610311, 30.338142)"><g><path d="M 0.578125 0 C 0.492188 0 0.429688 -0.015625 0.390625 -0.046875 C 0.359375 -0.0859375 0.34375 -0.148438 0.34375 -0.234375 L 0.34375 -1.015625 C 0.34375 -1.097656 0.359375 -1.15625 0.390625 -1.1875 C 0.429688 -1.226562 0.492188 -1.25 0.578125 -1.25 L 1.234375 -1.25 L 1.234375 -3.46875 L 0.578125 -3.46875 C 0.492188 -3.46875 0.429688 -3.484375 0.390625 -3.515625 C 0.359375 -3.554688 0.34375 -3.617188 0.34375 -3.703125 L 0.34375 -4.5 C 0.34375 -4.582031 0.359375 -4.640625 0.390625 -4.671875 C 0.429688 -4.710938 0.492188 -4.734375 0.578125 -4.734375 L 3.390625 -4.734375 C 3.472656 -4.734375 3.53125 -4.710938 3.5625 -4.671875 C 3.601562 -4.640625 3.625 -4.582031 3.625 -4.5 L 3.625 -3.703125 C 3.625 -3.617188 3.601562 -3.554688 3.5625 -3.515625 C 3.53125 -3.484375 3.472656 -3.46875 3.390625 -3.46875 L 2.75 -3.46875 L 2.75 -1.25 L 3.390625 -1.25 C 3.472656 -1.25 3.53125 -1.226562 3.5625 -1.1875 C 3.601562 -1.15625 3.625 -1.097656 3.625 -1.015625 L 3.625 -0.234375 C 3.625 -0.148438 3.601562 -0.0859375 3.5625 -0.046875 C 3.53125 -0.015625 3.472656 0 3.390625 0 Z M 0.578125 0 "/></g></g></g><g fill="#f1f100" fill-opacity="1"><g transform="translate(90.664898, 30.338142)"><g><path d="M 4.078125 0 L 2 0 C 1.445312 0 1.035156 -0.109375 0.765625 -0.328125 C 0.503906 -0.546875 0.375 -0.882812 0.375 -1.34375 L 0.375 -3.390625 C 0.375 -3.847656 0.503906 -4.1875 0.765625 -4.40625 C 1.035156 -4.625 1.445312 -4.734375 2 -4.734375 L 3.640625 -4.734375 C 3.722656 -4.734375 3.78125 -4.710938 3.8125 -4.671875 C 3.851562 -4.640625 3.875 -4.582031 3.875 -4.5 L 3.875 -3.703125 C 3.875 -3.617188 3.851562 -3.554688 3.8125 -3.515625 C 3.78125 -3.484375 3.722656 -3.46875 3.640625 -3.46875 L 2.28125 -3.46875 C 2.144531 -3.46875 2.039062 -3.4375 1.96875 -3.375 C 1.90625 -3.320312 1.875 -3.242188 1.875 -3.140625 L 1.875 -1.5625 C 1.875 -1.457031 1.898438 -1.378906 1.953125 -1.328125 C 2.003906 -1.273438 2.078125 -1.25 2.171875 -1.25 L 2.8125 -1.25 L 2.8125 -2.265625 C 2.8125 -2.347656 2.828125 -2.40625 2.859375 -2.4375 C 2.898438 -2.476562 2.960938 -2.5 3.046875 -2.5 L 4.078125 -2.5 C 4.160156 -2.5 4.21875 -2.476562 4.25 -2.4375 C 4.289062 -2.40625 4.3125 -2.347656 4.3125 -2.265625 L 4.3125 -0.234375 C 4.3125 -0.148438 4.289062 -0.0859375 4.25 -0.046875 C 4.21875 -0.015625 4.160156 0 4.078125 0 Z M 4.078125 0 "/></g></g></g><g fill="#f1f100" fill-opacity="1"><g transform="translate(97.397337, 30.338142)"><g><path d="M 1.703125 0 L 0.6875 0 C 0.601562 0 0.539062 -0.015625 0.5 -0.046875 C 0.46875 -0.0859375 0.453125 -0.148438 0.453125 -0.234375 L 0.453125 -4.5 C 0.453125 -4.582031 0.46875 -4.640625 0.5 -4.671875 C 0.539062 -4.710938 0.601562 -4.734375 0.6875 -4.734375 L 1.703125 -4.734375 C 1.785156 -4.734375 1.847656 -4.710938 1.890625 -4.671875 C 1.929688 -4.640625 1.953125 -4.582031 1.953125 -4.5 L 1.953125 -3.078125 L 3.046875 -3.078125 L 3.046875 -4.5 C 3.046875 -4.582031 3.0625 -4.640625 3.09375 -4.671875 C 3.132812 -4.710938 3.195312 -4.734375 3.28125 -4.734375 L 4.296875 -4.734375 C 4.378906 -4.734375 4.4375 -4.710938 4.46875 -4.671875 C 4.507812 -4.640625 4.53125 -4.582031 4.53125 -4.5 L 4.53125 -0.234375 C 4.53125 -0.148438 4.507812 -0.0859375 4.46875 -0.046875 C 4.4375 -0.015625 4.378906 0 4.296875 0 L 3.28125 0 C 3.195312 0 3.132812 -0.015625 3.09375 -0.046875 C 3.0625 -0.0859375 3.046875 -0.148438 3.046875 -0.234375 L 3.046875 -1.703125 L 1.953125 -1.703125 L 1.953125 -0.234375 C 1.953125 -0.148438 1.929688 -0.0859375 1.890625 -0.046875 C 1.847656 -0.015625 1.785156 0 1.703125 0 Z M 1.703125 0 "/></g></g></g><g fill="#f1f100" fill-opacity="1"><g transform="translate(104.465409, 30.338142)"><g><path d="M 2.6875 0 L 1.625 0 C 1.539062 0 1.476562 -0.015625 1.4375 -0.046875 C 1.40625 -0.0859375 1.390625 -0.148438 1.390625 -0.234375 L 1.390625 -3.46875 L 0.421875 -3.46875 C 0.335938 -3.46875 0.273438 -3.484375 0.234375 -3.515625 C 0.203125 -3.554688 0.1875 -3.617188 0.1875 -3.703125 L 0.1875 -4.5 C 0.1875 -4.582031 0.203125 -4.640625 0.234375 -4.671875 C 0.273438 -4.710938 0.335938 -4.734375 0.421875 -4.734375 L 3.890625 -4.734375 C 3.972656 -4.734375 4.03125 -4.710938 4.0625 -4.671875 C 4.101562 -4.640625 4.125 -4.582031 4.125 -4.5 L 4.125 -3.703125 C 4.125 -3.617188 4.101562 -3.554688 4.0625 -3.515625 C 4.03125 -3.484375 3.972656 -3.46875 3.890625 -3.46875 L 2.921875 -3.46875 L 2.921875 -0.234375 C 2.921875 -0.148438 2.898438 -0.0859375 2.859375 -0.046875 C 2.828125 -0.015625 2.769531 0 2.6875 0 Z M 2.6875 0 "/></g></g></g><g fill="#ff00ff" fill-opacity="1"><g transform="translate(29.030152, 19.882717)"><g><path d="M 5.578125 -8.609375 L 4.78125 -6.046875 L 7.4375 -6.046875 L 6.640625 -8.609375 C 6.597656 -8.710938 6.550781 -8.785156 6.5 -8.828125 C 6.445312 -8.878906 6.382812 -8.90625 6.3125 -8.90625 L 5.890625 -8.90625 C 5.828125 -8.90625 5.769531 -8.878906 5.71875 -8.828125 C 5.664062 -8.785156 5.617188 -8.710938 5.578125 -8.609375 Z M 4.609375 -0.609375 C 4.609375 -0.390625 4.5625 -0.234375 4.46875 -0.140625 C 4.375 -0.046875 4.21875 0 4 0 L 1.515625 0 C 1.304688 0 1.148438 -0.046875 1.046875 -0.140625 C 0.953125 -0.234375 0.90625 -0.390625 0.90625 -0.609375 L 0.90625 -5.0625 C 0.90625 -5.40625 0.957031 -5.796875 1.0625 -6.234375 C 1.175781 -6.671875 1.347656 -7.179688 1.578125 -7.765625 L 3.046875 -11.609375 C 3.109375 -11.796875 3.207031 -11.929688 3.34375 -12.015625 C 3.488281 -12.109375 3.675781 -12.15625 3.90625 -12.15625 L 8.4375 -12.15625 C 8.65625 -12.15625 8.832031 -12.109375 8.96875 -12.015625 C 9.113281 -11.929688 9.222656 -11.796875 9.296875 -11.609375 L 10.765625 -7.765625 C 10.984375 -7.179688 11.144531 -6.671875 11.25 -6.234375 C 11.363281 -5.796875 11.421875 -5.40625 11.421875 -5.0625 L 11.421875 -0.609375 C 11.421875 -0.390625 11.367188 -0.234375 11.265625 -0.140625 C 11.171875 -0.046875 11.019531 0 10.8125 0 L 8.265625 0 C 8.035156 0 7.863281 -0.046875 7.75 -0.140625 C 7.644531 -0.234375 7.59375 -0.390625 7.59375 -0.609375 L 7.59375 -2.96875 L 4.609375 -2.96875 Z M 4.609375 -0.609375 "/></g></g></g><g fill="#00ffff" fill-opacity="1"><g transform="translate(30.454065, 20.577206)"><g><path d="M 5.578125 -8.609375 L 4.78125 -6.046875 L 7.4375 -6.046875 L 6.640625 -8.609375 C 6.597656 -8.710938 6.550781 -8.785156 6.5 -8.828125 C 6.445312 -8.878906 6.382812 -8.90625 6.3125 -8.90625 L 5.890625 -8.90625 C 5.828125 -8.90625 5.769531 -8.878906 5.71875 -8.828125 C 5.664062 -8.785156 5.617188 -8.710938 5.578125 -8.609375 Z M 4.609375 -0.609375 C 4.609375 -0.390625 4.5625 -0.234375 4.46875 -0.140625 C 4.375 -0.046875 4.21875 0 4 0 L 1.515625 0 C 1.304688 0 1.148438 -0.046875 1.046875 -0.140625 C 0.953125 -0.234375 0.90625 -0.390625 0.90625 -0.609375 L 0.90625 -5.0625 C 0.90625 -5.40625 0.957031 -5.796875 1.0625 -6.234375 C 1.175781 -6.671875 1.347656 -7.179688 1.578125 -7.765625 L 3.046875 -11.609375 C 3.109375 -11.796875 3.207031 -11.929688 3.34375 -12.015625 C 3.488281 -12.109375 3.675781 -12.15625 3.90625 -12.15625 L 8.4375 -12.15625 C 8.65625 -12.15625 8.832031 -12.109375 8.96875 -12.015625 C 9.113281 -11.929688 9.222656 -11.796875 9.296875 -11.609375 L 10.765625 -7.765625 C 10.984375 -7.179688 11.144531 -6.671875 11.25 -6.234375 C 11.363281 -5.796875 11.421875 -5.40625 11.421875 -5.0625 L 11.421875 -0.609375 C 11.421875 -0.390625 11.367188 -0.234375 11.265625 -0.140625 C 11.171875 -0.046875 11.019531 0 10.8125 0 L 8.265625 0 C 8.035156 0 7.863281 -0.046875 7.75 -0.140625 C 7.644531 -0.234375 7.59375 -0.390625 7.59375 -0.609375 L 7.59375 -2.96875 L 4.609375 -2.96875 Z M 4.609375 -0.609375 "/></g></g></g><g fill="#cb6ce6" fill-opacity="1"><g transform="translate(29.742108, 20.229961)"><g><path d="M 5.578125 -8.609375 L 4.78125 -6.046875 L 7.4375 -6.046875 L 6.640625 -8.609375 C 6.597656 -8.710938 6.550781 -8.785156 6.5 -8.828125 C 6.445312 -8.878906 6.382812 -8.90625 6.3125 -8.90625 L 5.890625 -8.90625 C 5.828125 -8.90625 5.769531 -8.878906 5.71875 -8.828125 C 5.664062 -8.785156 5.617188 -8.710938 5.578125 -8.609375 Z M 4.609375 -0.609375 C 4.609375 -0.390625 4.5625 -0.234375 4.46875 -0.140625 C 4.375 -0.046875 4.21875 0 4 0 L 1.515625 0 C 1.304688 0 1.148438 -0.046875 1.046875 -0.140625 C 0.953125 -0.234375 0.90625 -0.390625 0.90625 -0.609375 L 0.90625 -5.0625 C 0.90625 -5.40625 0.957031 -5.796875 1.0625 -6.234375 C 1.175781 -6.671875 1.347656 -7.179688 1.578125 -7.765625 L 3.046875 -11.609375 C 3.109375 -11.796875 3.207031 -11.929688 3.34375 -12.015625 C 3.488281 -12.109375 3.675781 -12.15625 3.90625 -12.15625 L 8.4375 -12.15625 C 8.65625 -12.15625 8.832031 -12.109375 8.96875 -12.015625 C 9.113281 -11.929688 9.222656 -11.796875 9.296875 -11.609375 L 10.765625 -7.765625 C 10.984375 -7.179688 11.144531 -6.671875 11.25 -6.234375 C 11.363281 -5.796875 11.421875 -5.40625 11.421875 -5.0625 L 11.421875 -0.609375 C 11.421875 -0.390625 11.367188 -0.234375 11.265625 -0.140625 C 11.171875 -0.046875 11.019531 0 10.8125 0 L 8.265625 0 C 8.035156 0 7.863281 -0.046875 7.75 -0.140625 C 7.644531 -0.234375 7.59375 -0.390625 7.59375 -0.609375 L 7.59375 -2.96875 L 4.609375 -2.96875 Z M 4.609375 -0.609375 "/></g></g></g><g fill="#ff00ff" fill-opacity="1"><g transform="translate(42.380283, 19.882717)"><g><path d="M 4.984375 -9.125 L 4.984375 -6.953125 L 6.25 -6.953125 C 6.539062 -6.953125 6.738281 -7.03125 6.84375 -7.1875 C 6.945312 -7.34375 7 -7.53125 7 -7.75 L 7 -8.328125 C 7 -8.554688 6.945312 -8.742188 6.84375 -8.890625 C 6.738281 -9.046875 6.539062 -9.125 6.25 -9.125 Z M 4.375 0 L 1.78125 0 C 1.5625 0 1.40625 -0.046875 1.3125 -0.140625 C 1.21875 -0.234375 1.171875 -0.390625 1.171875 -0.609375 L 1.171875 -11.546875 C 1.171875 -11.765625 1.21875 -11.921875 1.3125 -12.015625 C 1.40625 -12.109375 1.5625 -12.15625 1.78125 -12.15625 L 7.390625 -12.15625 C 8.660156 -12.15625 9.53125 -11.894531 10 -11.375 C 10.476562 -10.851562 10.71875 -10.175781 10.71875 -9.34375 L 10.71875 -8.5625 C 10.71875 -8.09375 10.644531 -7.691406 10.5 -7.359375 C 10.363281 -7.023438 10.125 -6.785156 9.78125 -6.640625 C 10.382812 -6.566406 10.875 -6.316406 11.25 -5.890625 C 11.632812 -5.460938 11.828125 -4.894531 11.828125 -4.1875 L 11.828125 -0.609375 C 11.828125 -0.390625 11.773438 -0.234375 11.671875 -0.140625 C 11.578125 -0.046875 11.425781 0 11.21875 0 L 8.59375 0 C 8.382812 0 8.226562 -0.046875 8.125 -0.140625 C 8.03125 -0.234375 7.984375 -0.390625 7.984375 -0.609375 L 7.984375 -3.1875 C 7.984375 -3.4375 7.9375 -3.617188 7.84375 -3.734375 C 7.75 -3.859375 7.582031 -3.921875 7.34375 -3.921875 L 4.984375 -3.921875 L 4.984375 -0.609375 C 4.984375 -0.390625 4.9375 -0.234375 4.84375 -0.140625 C 4.75 -0.046875 4.59375 0 4.375 0 Z M 4.375 0 "/></g></g></g><g fill="#00ffff" fill-opacity="1"><g transform="translate(43.804196, 20.577206)"><g><path d="M 4.984375 -9.125 L 4.984375 -6.953125 L 6.25 -6.953125 C 6.539062 -6.953125 6.738281 -7.03125 6.84375 -7.1875 C 6.945312 -7.34375 7 -7.53125 7 -7.75 L 7 -8.328125 C 7 -8.554688 6.945312 -8.742188 6.84375 -8.890625 C 6.738281 -9.046875 6.539062 -9.125 6.25 -9.125 Z M 4.375 0 L 1.78125 0 C 1.5625 0 1.40625 -0.046875 1.3125 -0.140625 C 1.21875 -0.234375 1.171875 -0.390625 1.171875 -0.609375 L 1.171875 -11.546875 C 1.171875 -11.765625 1.21875 -11.921875 1.3125 -12.015625 C 1.40625 -12.109375 1.5625 -12.15625 1.78125 -12.15625 L 7.390625 -12.15625 C 8.660156 -12.15625 9.53125 -11.894531 10 -11.375 C 10.476562 -10.851562 10.71875 -10.175781 10.71875 -9.34375 L 10.71875 -8.5625 C 10.71875 -8.09375 10.644531 -7.691406 10.5 -7.359375 C 10.363281 -7.023438 10.125 -6.785156 9.78125 -6.640625 C 10.382812 -6.566406 10.875 -6.316406 11.25 -5.890625 C 11.632812 -5.460938 11.828125 -4.894531 11.828125 -4.1875 L 11.828125 -0.609375 C 11.828125 -0.390625 11.773438 -0.234375 11.671875 -0.140625 C 11.578125 -0.046875 11.425781 0 11.21875 0 L 8.59375 0 C 8.382812 0 8.226562 -0.046875 8.125 -0.140625 C 8.03125 -0.234375 7.984375 -0.390625 7.984375 -0.609375 L 7.984375 -3.1875 C 7.984375 -3.4375 7.9375 -3.617188 7.84375 -3.734375 C 7.75 -3.859375 7.582031 -3.921875 7.34375 -3.921875 L 4.984375 -3.921875 L 4.984375 -0.609375 C 4.984375 -0.390625 4.9375 -0.234375 4.84375 -0.140625 C 4.75 -0.046875 4.59375 0 4.375 0 Z M 4.375 0 "/></g></g></g><g fill="#ff3131" fill-opacity="1"><g transform="translate(43.092239, 20.229961)"><g><path d="M 4.984375 -9.125 L 4.984375 -6.953125 L 6.25 -6.953125 C 6.539062 -6.953125 6.738281 -7.03125 6.84375 -7.1875 C 6.945312 -7.34375 7 -7.53125 7 -7.75 L 7 -8.328125 C 7 -8.554688 6.945312 -8.742188 6.84375 -8.890625 C 6.738281 -9.046875 6.539062 -9.125 6.25 -9.125 Z M 4.375 0 L 1.78125 0 C 1.5625 0 1.40625 -0.046875 1.3125 -0.140625 C 1.21875 -0.234375 1.171875 -0.390625 1.171875 -0.609375 L 1.171875 -11.546875 C 1.171875 -11.765625 1.21875 -11.921875 1.3125 -12.015625 C 1.40625 -12.109375 1.5625 -12.15625 1.78125 -12.15625 L 7.390625 -12.15625 C 8.660156 -12.15625 9.53125 -11.894531 10 -11.375 C 10.476562 -10.851562 10.71875 -10.175781 10.71875 -9.34375 L 10.71875 -8.5625 C 10.71875 -8.09375 10.644531 -7.691406 10.5 -7.359375 C 10.363281 -7.023438 10.125 -6.785156 9.78125 -6.640625 C 10.382812 -6.566406 10.875 -6.316406 11.25 -5.890625 C 11.632812 -5.460938 11.828125 -4.894531 11.828125 -4.1875 L 11.828125 -0.609375 C 11.828125 -0.390625 11.773438 -0.234375 11.671875 -0.140625 C 11.578125 -0.046875 11.425781 0 11.21875 0 L 8.59375 0 C 8.382812 0 8.226562 -0.046875 8.125 -0.140625 C 8.03125 -0.234375 7.984375 -0.390625 7.984375 -0.609375 L 7.984375 -3.1875 C 7.984375 -3.4375 7.9375 -3.617188 7.84375 -3.734375 C 7.75 -3.859375 7.582031 -3.921875 7.34375 -3.921875 L 4.984375 -3.921875 L 4.984375 -0.609375 C 4.984375 -0.390625 4.9375 -0.234375 4.84375 -0.140625 C 4.75 -0.046875 4.59375 0 4.375 0 Z M 4.375 0 "/></g></g></g><g fill="#ff00ff" fill-opacity="1"><g transform="translate(55.946796, 19.882717)"><g><path d="M 10.453125 0 L 5.140625 0 C 3.722656 0 2.675781 -0.28125 2 -0.84375 C 1.320312 -1.40625 0.984375 -2.273438 0.984375 -3.453125 L 0.984375 -8.71875 C 0.984375 -9.882812 1.320312 -10.75 2 -11.3125 C 2.675781 -11.875 3.722656 -12.15625 5.140625 -12.15625 L 9.359375 -12.15625 C 9.566406 -12.15625 9.71875 -12.109375 9.8125 -12.015625 C 9.914062 -11.921875 9.96875 -11.765625 9.96875 -11.546875 L 9.96875 -9.515625 C 9.96875 -9.296875 9.914062 -9.140625 9.8125 -9.046875 C 9.71875 -8.953125 9.566406 -8.90625 9.359375 -8.90625 L 5.84375 -8.90625 C 5.5 -8.90625 5.238281 -8.832031 5.0625 -8.6875 C 4.894531 -8.550781 4.8125 -8.34375 4.8125 -8.0625 L 4.8125 -4.015625 C 4.8125 -3.734375 4.875 -3.523438 5 -3.390625 C 5.132812 -3.253906 5.332031 -3.1875 5.59375 -3.1875 L 7.234375 -3.1875 L 7.234375 -5.828125 C 7.234375 -6.035156 7.28125 -6.1875 7.375 -6.28125 C 7.46875 -6.382812 7.625 -6.4375 7.84375 -6.4375 L 10.453125 -6.4375 C 10.671875 -6.4375 10.828125 -6.382812 10.921875 -6.28125 C 11.015625 -6.1875 11.0625 -6.035156 11.0625 -5.828125 L 11.0625 -0.609375 C 11.0625 -0.390625 11.015625 -0.234375 10.921875 -0.140625 C 10.828125 -0.046875 10.671875 0 10.453125 0 Z M 10.453125 0 "/></g></g></g><g fill="#00ffff" fill-opacity="1"><g transform="translate(57.370709, 20.577206)"><g><path d="M 10.453125 0 L 5.140625 0 C 3.722656 0 2.675781 -0.28125 2 -0.84375 C 1.320312 -1.40625 0.984375 -2.273438 0.984375 -3.453125 L 0.984375 -8.71875 C 0.984375 -9.882812 1.320312 -10.75 2 -11.3125 C 2.675781 -11.875 3.722656 -12.15625 5.140625 -12.15625 L 9.359375 -12.15625 C 9.566406 -12.15625 9.71875 -12.109375 9.8125 -12.015625 C 9.914062 -11.921875 9.96875 -11.765625 9.96875 -11.546875 L 9.96875 -9.515625 C 9.96875 -9.296875 9.914062 -9.140625 9.8125 -9.046875 C 9.71875 -8.953125 9.566406 -8.90625 9.359375 -8.90625 L 5.84375 -8.90625 C 5.5 -8.90625 5.238281 -8.832031 5.0625 -8.6875 C 4.894531 -8.550781 4.8125 -8.34375 4.8125 -8.0625 L 4.8125 -4.015625 C 4.8125 -3.734375 4.875 -3.523438 5 -3.390625 C 5.132812 -3.253906 5.332031 -3.1875 5.59375 -3.1875 L 7.234375 -3.1875 L 7.234375 -5.828125 C 7.234375 -6.035156 7.28125 -6.1875 7.375 -6.28125 C 7.46875 -6.382812 7.625 -6.4375 7.84375 -6.4375 L 10.453125 -6.4375 C 10.671875 -6.4375 10.828125 -6.382812 10.921875 -6.28125 C 11.015625 -6.1875 11.0625 -6.035156 11.0625 -5.828125 L 11.0625 -0.609375 C 11.0625 -0.390625 11.015625 -0.234375 10.921875 -0.140625 C 10.828125 -0.046875 10.671875 0 10.453125 0 Z M 10.453125 0 "/></g></g></g><g fill="#00bf63" fill-opacity="1"><g transform="translate(56.658753, 20.229961)"><g><path d="M 10.453125 0 L 5.140625 0 C 3.722656 0 2.675781 -0.28125 2 -0.84375 C 1.320312 -1.40625 0.984375 -2.273438 0.984375 -3.453125 L 0.984375 -8.71875 C 0.984375 -9.882812 1.320312 -10.75 2 -11.3125 C 2.675781 -11.875 3.722656 -12.15625 5.140625 -12.15625 L 9.359375 -12.15625 C 9.566406 -12.15625 9.71875 -12.109375 9.8125 -12.015625 C 9.914062 -11.921875 9.96875 -11.765625 9.96875 -11.546875 L 9.96875 -9.515625 C 9.96875 -9.296875 9.914062 -9.140625 9.8125 -9.046875 C 9.71875 -8.953125 9.566406 -8.90625 9.359375 -8.90625 L 5.84375 -8.90625 C 5.5 -8.90625 5.238281 -8.832031 5.0625 -8.6875 C 4.894531 -8.550781 4.8125 -8.34375 4.8125 -8.0625 L 4.8125 -4.015625 C 4.8125 -3.734375 4.875 -3.523438 5 -3.390625 C 5.132812 -3.253906 5.332031 -3.1875 5.59375 -3.1875 L 7.234375 -3.1875 L 7.234375 -5.828125 C 7.234375 -6.035156 7.28125 -6.1875 7.375 -6.28125 C 7.46875 -6.382812 7.625 -6.4375 7.84375 -6.4375 L 10.453125 -6.4375 C 10.671875 -6.4375 10.828125 -6.382812 10.921875 -6.28125 C 11.015625 -6.1875 11.0625 -6.035156 11.0625 -5.828125 L 11.0625 -0.609375 C 11.0625 -0.390625 11.015625 -0.234375 10.921875 -0.140625 C 10.828125 -0.046875 10.671875 0 10.453125 0 Z M 10.453125 0 "/></g></g></g><g fill="#ff00ff" fill-opacity="1"><g transform="translate(68.923176, 19.882717)"><g><path d="M 8.265625 0 L 1.78125 0 C 1.5625 0 1.40625 -0.046875 1.3125 -0.140625 C 1.21875 -0.234375 1.171875 -0.390625 1.171875 -0.609375 L 1.171875 -11.546875 C 1.171875 -11.765625 1.21875 -11.921875 1.3125 -12.015625 C 1.40625 -12.109375 1.5625 -12.15625 1.78125 -12.15625 L 7.15625 -12.15625 C 8.257812 -12.15625 9.078125 -11.941406 9.609375 -11.515625 C 10.140625 -11.097656 10.40625 -10.453125 10.40625 -9.578125 L 10.40625 -8.765625 C 10.40625 -8.296875 10.320312 -7.910156 10.15625 -7.609375 C 10 -7.304688 9.75 -7.082031 9.40625 -6.9375 C 10.125 -6.875 10.65625 -6.628906 11 -6.203125 C 11.351562 -5.773438 11.53125 -5.148438 11.53125 -4.328125 L 11.53125 -2.765625 C 11.53125 -1.816406 11.265625 -1.117188 10.734375 -0.671875 C 10.203125 -0.222656 9.378906 0 8.265625 0 Z M 4.96875 -9.296875 L 4.96875 -7.46875 L 6.40625 -7.46875 C 6.613281 -7.46875 6.769531 -7.519531 6.875 -7.625 C 6.988281 -7.738281 7.046875 -7.910156 7.046875 -8.140625 L 7.046875 -8.609375 C 7.046875 -8.835938 6.988281 -9.007812 6.875 -9.125 C 6.769531 -9.238281 6.613281 -9.296875 6.40625 -9.296875 Z M 4.96875 -4.859375 L 4.96875 -2.875 L 7.15625 -2.875 C 7.375 -2.875 7.535156 -2.925781 7.640625 -3.03125 C 7.742188 -3.144531 7.796875 -3.316406 7.796875 -3.546875 L 7.796875 -4.203125 C 7.796875 -4.429688 7.742188 -4.597656 7.640625 -4.703125 C 7.535156 -4.804688 7.375 -4.859375 7.15625 -4.859375 Z M 4.96875 -4.859375 "/></g></g></g><g fill="#00ffff" fill-opacity="1"><g transform="translate(70.347089, 20.577206)"><g><path d="M 8.265625 0 L 1.78125 0 C 1.5625 0 1.40625 -0.046875 1.3125 -0.140625 C 1.21875 -0.234375 1.171875 -0.390625 1.171875 -0.609375 L 1.171875 -11.546875 C 1.171875 -11.765625 1.21875 -11.921875 1.3125 -12.015625 C 1.40625 -12.109375 1.5625 -12.15625 1.78125 -12.15625 L 7.15625 -12.15625 C 8.257812 -12.15625 9.078125 -11.941406 9.609375 -11.515625 C 10.140625 -11.097656 10.40625 -10.453125 10.40625 -9.578125 L 10.40625 -8.765625 C 10.40625 -8.296875 10.320312 -7.910156 10.15625 -7.609375 C 10 -7.304688 9.75 -7.082031 9.40625 -6.9375 C 10.125 -6.875 10.65625 -6.628906 11 -6.203125 C 11.351562 -5.773438 11.53125 -5.148438 11.53125 -4.328125 L 11.53125 -2.765625 C 11.53125 -1.816406 11.265625 -1.117188 10.734375 -0.671875 C 10.203125 -0.222656 9.378906 0 8.265625 0 Z M 4.96875 -9.296875 L 4.96875 -7.46875 L 6.40625 -7.46875 C 6.613281 -7.46875 6.769531 -7.519531 6.875 -7.625 C 6.988281 -7.738281 7.046875 -7.910156 7.046875 -8.140625 L 7.046875 -8.609375 C 7.046875 -8.835938 6.988281 -9.007812 6.875 -9.125 C 6.769531 -9.238281 6.613281 -9.296875 6.40625 -9.296875 Z M 4.96875 -4.859375 L 4.96875 -2.875 L 7.15625 -2.875 C 7.375 -2.875 7.535156 -2.925781 7.640625 -3.03125 C 7.742188 -3.144531 7.796875 -3.316406 7.796875 -3.546875 L 7.796875 -4.203125 C 7.796875 -4.429688 7.742188 -4.597656 7.640625 -4.703125 C 7.535156 -4.804688 7.375 -4.859375 7.15625 -4.859375 Z M 4.96875 -4.859375 "/></g></g></g><g fill="#004aad" fill-opacity="1"><g transform="translate(69.635133, 20.229961)"><g><path d="M 8.265625 0 L 1.78125 0 C 1.5625 0 1.40625 -0.046875 1.3125 -0.140625 C 1.21875 -0.234375 1.171875 -0.390625 1.171875 -0.609375 L 1.171875 -11.546875 C 1.171875 -11.765625 1.21875 -11.921875 1.3125 -12.015625 C 1.40625 -12.109375 1.5625 -12.15625 1.78125 -12.15625 L 7.15625 -12.15625 C 8.257812 -12.15625 9.078125 -11.941406 9.609375 -11.515625 C 10.140625 -11.097656 10.40625 -10.453125 10.40625 -9.578125 L 10.40625 -8.765625 C 10.40625 -8.296875 10.320312 -7.910156 10.15625 -7.609375 C 10 -7.304688 9.75 -7.082031 9.40625 -6.9375 C 10.125 -6.875 10.65625 -6.628906 11 -6.203125 C 11.351562 -5.773438 11.53125 -5.148438 11.53125 -4.328125 L 11.53125 -2.765625 C 11.53125 -1.816406 11.265625 -1.117188 10.734375 -0.671875 C 10.203125 -0.222656 9.378906 0 8.265625 0 Z M 4.96875 -9.296875 L 4.96875 -7.46875 L 6.40625 -7.46875 C 6.613281 -7.46875 6.769531 -7.519531 6.875 -7.625 C 6.988281 -7.738281 7.046875 -7.910156 7.046875 -8.140625 L 7.046875 -8.609375 C 7.046875 -8.835938 6.988281 -9.007812 6.875 -9.125 C 6.769531 -9.238281 6.613281 -9.296875 6.40625 -9.296875 Z M 4.96875 -4.859375 L 4.96875 -2.875 L 7.15625 -2.875 C 7.375 -2.875 7.535156 -2.925781 7.640625 -3.03125 C 7.742188 -3.144531 7.796875 -3.316406 7.796875 -3.546875 L 7.796875 -4.203125 C 7.796875 -4.429688 7.742188 -4.597656 7.640625 -4.703125 C 7.535156 -4.804688 7.375 -4.859375 7.15625 -4.859375 Z M 4.96875 -4.859375 "/></g></g></g><g clip-path="url(#6808029545)"><g clip-path="url(#11b1c26e78)"><path fill="#ff3131" d="M 79.503906 1.152344 L 94.050781 1.152344 L 94.050781 17.160156 L 79.503906 17.160156 Z M 79.503906 1.152344 " fill-opacity="1" fill-rule="nonzero"/></g></g><g clip-path="url(#b37f5b5a12)"><g clip-path="url(#de326dd1aa)"><path fill="#00bf63" d="M 79.503906 1.152344 L 94.050781 1.152344 L 94.050781 17.160156 L 79.503906 17.160156 Z M 79.503906 1.152344 " fill-opacity="1" fill-rule="nonzero"/></g></g><g clip-path="url(#f3282a04fb)"><g clip-path="url(#4a947112b3)"><path fill="#004aad" d="M 79.503906 1.152344 L 94.050781 1.152344 L 94.050781 17.160156 L 79.503906 17.160156 Z M 79.503906 1.152344 " fill-opacity="1" fill-rule="nonzero"/></g></g><g clip-path="url(#735c774418)"><g clip-path="url(#2b1afb0b02)"><path fill="#ff3131" d="M 79.503906 1.152344 L 94.050781 1.152344 L 94.050781 17.160156 L 79.503906 17.160156 Z M 79.503906 1.152344 " fill-opacity="1" fill-rule="nonzero"/></g></g><g clip-path="url(#c020146517)"><g clip-path="url(#4ee4510d78)"><path fill="#004aad" d="M 79.503906 1.152344 L 94.050781 1.152344 L 94.050781 17.160156 L 79.503906 17.160156 Z M 79.503906 1.152344 " fill-opacity="1" fill-rule="nonzero"/></g></g><g clip-path="url(#171a9d0c1f)"><g clip-path="url(#ed5dd411e8)"><path fill="#00bf63" d="M 79.503906 1.152344 L 94.050781 1.152344 L 94.050781 17.160156 L 79.503906 17.160156 Z M 79.503906 1.152344 " fill-opacity="1" fill-rule="nonzero"/></g></g><g clip-path="url(#8ea1901bb7)"><g clip-path="url(#2acf5fde60)"><path fill="#cb6ce6" d="M 79.503906 1.152344 L 94.050781 1.152344 L 94.050781 17.160156 L 79.503906 17.160156 Z M 79.503906 1.152344 " fill-opacity="1" fill-rule="nonzero"/></g></g></svg>